<?xml version="1.0" encoding="UTF-8"?>
<svg width="28px" height="28px" viewBox="0 0 28 28" version="1.1" xmlns="http://www.w3.org/2000/svg" xmlns:xlink="http://www.w3.org/1999/xlink">
    <!-- Generator: Sketch 49.3 (51167) - http://www.bohemiancoding.com/sketch -->
    <title>Group 3</title>
    <desc>Created with Sketch.</desc>
    <defs></defs>
    <g id="Page-1" stroke="none" stroke-width="1" fill="none" fill-rule="evenodd">
        <g id="desk-copy-2" transform="translate(-913.000000, -692.000000)">
            <g id="Group-7" transform="translate(914.000000, 693.000000)">
                <g id="Group-3">
                    <path d="M10.78125,20.9999952 L10.78125,13.8437623 L8.375,13.8437623 L8.375,11.0000191 L10.78125,11.0000191 L10.78125,8.75002444 C10.78125,7.56252727 11.1145835,6.64065447 11.78125,5.98440603 C12.4479165,5.3281576 13.3333335,5.00003338 14.4375,5.00003338 C15.3333335,5.00003338 16.0625,5.04169979 16.625,5.12503308 L16.625,7.65627705 L15.125,7.65627705 C14.5625,7.65627705 14.1770835,7.78127675 13.96875,8.03127615 C13.8020835,8.23960915 13.71875,8.57294137 13.71875,9.03127377 L13.71875,11.0000191 L16.375,11.0000191 L16,13.8437623 L13.71875,13.8437623 L13.71875,20.9999952 L10.78125,20.9999952 Z" id="" fill="#000000"></path>
                    <circle id="Oval" stroke="#000000" cx="13" cy="13" r="13"></circle>
                </g>
            </g>
        </g>
    </g>
</svg>