<?xml version="1.0" encoding="UTF-8"?>
<svg width="28px" height="28px" viewBox="0 0 28 28" version="1.1" xmlns="http://www.w3.org/2000/svg" xmlns:xlink="http://www.w3.org/1999/xlink">
    <!-- Generator: Sketch 49.3 (51167) - http://www.bohemiancoding.com/sketch -->
    <title>Group 5</title>
    <desc>Created with Sketch.</desc>
    <defs></defs>
    <g id="Page-1" stroke="none" stroke-width="1" fill="none" fill-rule="evenodd">
        <g id="desk-copy-2" transform="translate(-955.000000, -692.000000)">
            <g id="Group-7" transform="translate(914.000000, 693.000000)">
                <g id="Group-5" transform="translate(42.000000, 0.000000)">
                    <path d="M19.34375,9.75002205 C19.3645835,9.83335535 19.375,9.96877153 19.375,10.1562711 C19.375,11.6562675 19.0104165,13.1041806 18.28125,14.5000107 C17.53125,15.9791737 16.4791665,17.1562544 15.125,18.0312523 C13.6458335,19.0104165 11.9479165,19.4999988 10.03125,19.4999988 C8.19791651,19.4999988 6.52083349,19.0104165 5,18.0312523 C5.22916651,18.0520858 5.48958349,18.0625022 5.78125,18.0625022 C7.30208349,18.0625022 8.66666651,17.5937534 9.875,16.6562556 C9.14583349,16.6562556 8.50520849,16.4427146 7.953125,16.0156321 C7.40104151,15.5885496 7.02083349,15.0520929 6.8125,14.406261 C7.02083349,14.4270944 7.21875,14.4375109 7.40625,14.4375109 C7.69791651,14.4375109 7.98958349,14.406261 8.28125,14.3437611 C7.53125,14.177095 6.90625,13.7916789 6.40625,13.1875139 C5.90625,12.5833488 5.65625,11.8958504 5.65625,11.1250188 L5.65625,11.0625189 C6.11458349,11.3333518 6.60416651,11.4791844 7.125,11.5000179 C6.6875,11.1875186 6.33333349,10.7916861 6.0625,10.3125207 C5.79166651,9.83335535 5.65625,9.30731462 5.65625,8.73439948 C5.65625,8.16148433 5.8125,7.61461064 6.125,7.09377839 C6.9375,8.11460945 7.93229151,8.92710751 9.109375,9.53127258 C10.2864585,10.1354376 11.5416665,10.4687703 12.875,10.5312702 C12.8333335,10.2812708 12.8125,10.0312714 12.8125,9.78127198 C12.8125,9.19793988 12.9583335,8.65106618 13.25,8.14065089 C13.5416665,7.6302356 13.9375,7.22919457 14.4375,6.93752876 C14.9375,6.64586295 15.4791665,6.5000298 16.0625,6.5000298 C16.5416665,6.5000298 16.984375,6.59377958 17.390625,6.78127913 C17.796875,6.96877868 18.15625,7.21877809 18.46875,7.53127734 C19.21875,7.3854442 19.9166665,7.12502831 20.5625,6.75002921 C20.3125,7.52086086 19.8333335,8.12502593 19.125,8.56252488 C19.75,8.47919159 20.375,8.302109 21,8.03127615 C20.5416665,8.69794107 19.9895835,9.27085669 19.34375,9.75002205 Z" id="" fill="#000000"></path>
                    <circle id="Oval-Copy-2" stroke="#000000" cx="13" cy="13" r="13"></circle>
                </g>
            </g>
        </g>
    </g>
</svg>