<?xml version="1.0" encoding="UTF-8"?>
<svg width="33px" height="33px" viewBox="0 0 33 33" version="1.1" xmlns="http://www.w3.org/2000/svg" xmlns:xlink="http://www.w3.org/1999/xlink">
    <!-- Generator: Sketch 49.3 (51167) - http://www.bohemiancoding.com/sketch -->
    <title>Group 8</title>
    <desc>Created with Sketch.</desc>
    <defs></defs>
    <g id="Page-1" stroke="none" stroke-width="1" fill="none" fill-rule="evenodd">
        <g id="Artboard-2-Copy-6" transform="translate(-644.000000, -837.000000)">
            <g id="Group-8" transform="translate(645.000000, 838.000000)">
                <circle id="Oval-Copy-3" stroke="#000000" stroke-width="1.2" cx="15.6" cy="15.6" r="15.6"></circle>
                <path d="M24.725,10.825 C24.65,11.2 24.35,11.8250002 23.825,12.7 C23.45,13.3250002 23,14.05 22.475,14.875 C22.025,15.5249998 21.7875002,15.8624998 21.7625,15.8875 C21.6125,16.1125 21.5375,16.2875002 21.5375,16.4125 C21.5375,16.5374998 21.6125,16.6874998 21.7625,16.8625 L22.1,17.2375 C23.9,19.0874998 24.9125,20.3624998 25.1375,21.0625 C25.2125,21.3625 25.1812502,21.5937502 25.04375,21.75625 C24.9062498,21.9187498 24.6875,22 24.3875,22 L22.175,22 C21.9000002,22 21.65,21.9125002 21.425,21.7375 C21.275,21.6374998 21.0062498,21.3687502 20.61875,20.93125 C20.2312502,20.4937498 19.8875,20.125 19.5875,19.825 C18.5874998,18.8750002 17.8500002,18.4 17.375,18.4 C17.1750002,18.4 17.0312498,18.4375 16.94375,18.5125 C16.8562502,18.5875 16.8125,18.7499998 16.8125,19 C16.7874998,19.1750002 16.775,19.5625 16.775,20.1625 L16.775,21.1375 C16.8000002,21.4375 16.7250002,21.6500002 16.55,21.775 C16.325,21.925 15.875,22 15.2,22 C14.0250002,22 12.8375,21.6500002 11.6375,20.95 C10.4375,20.2499998 9.3875,19.2500002 8.4875,17.95 C7.63749981,16.7999998 6.92499981,15.6374998 6.35,14.4625 C5.9,13.5625 5.53749981,12.7250002 5.2625,11.95 C5.08749981,11.3249998 5,10.8875002 5,10.6375 C5,10.2125002 5.25000019,10 5.75,10 L7.9625,10 C8.23749981,10 8.44374981,10.0625002 8.58125,10.1875 C8.71875019,10.3124998 8.83749981,10.5374998 8.9375,10.8625 C9.28749981,11.8625002 9.71250019,12.8375002 10.2125,13.7875 C10.6625,14.6624998 11.1125,15.3749998 11.5625,15.925 C12.0125,16.4750002 12.3624998,16.75 12.6125,16.75 C12.7625,16.75 12.8687498,16.69375 12.93125,16.58125 C12.9937502,16.46875 13.025,16.2500002 13.025,15.925 L13.025,12.6625 C12.9999998,12.2624998 12.9125,11.9125 12.7625,11.6125 C12.6875,11.4374998 12.5625002,11.2437502 12.3875,11.03125 C12.2124998,10.8187498 12.125,10.6437502 12.125,10.50625 C12.125,10.3687498 12.18125,10.2500002 12.29375,10.15 C12.40625,10.0499998 12.5375,10 12.6875,10 L16.175,10 C16.4,10 16.5562502,10.0625002 16.64375,10.1875 C16.7312498,10.3124998 16.775,10.525 16.775,10.825 L16.775,15.175 C16.775,15.4 16.8125,15.5624998 16.8875,15.6625 C16.9625,15.7625002 17.05625,15.8125 17.16875,15.8125 C17.28125,15.8125 17.4125,15.7687498 17.5625,15.68125 C17.7125,15.5937502 17.9124998,15.4124998 18.1625,15.1375 C18.6375002,14.6125 19.1124998,13.9625002 19.5875,13.1875 C19.9125002,12.6374998 20.225,12.0374998 20.525,11.3875 L20.9,10.6375 C21.0750002,10.2125002 21.3875,10 21.8375,10 L24.05,10 C24.65,10 24.875,10.2749998 24.725,10.825 Z" id="" fill="#000000"></path>
            </g>
        </g>
    </g>
</svg>