<?xml version="1.0" encoding="UTF-8"?>
<svg width="28px" height="28px" viewBox="0 0 28 28" version="1.1" xmlns="http://www.w3.org/2000/svg" xmlns:xlink="http://www.w3.org/1999/xlink">
    <!-- Generator: Sketch 49.3 (51167) - http://www.bohemiancoding.com/sketch -->
    <title>Group 4 Copy</title>
    <desc>Created with Sketch.</desc>
    <defs></defs>
    <g id="Page-1" stroke="none" stroke-width="1" fill="none" fill-rule="evenodd">
        <g id="desk-copy-2" transform="translate(-997.000000, -692.000000)">
            <g id="Group-7" transform="translate(914.000000, 693.000000)">
                <g id="Group-4-Copy" transform="translate(84.000000, 0.000000)">
                    <path d="M12.9999833,9.40627287 C13.6458153,9.40627287 14.2447719,9.56773098 14.796854,9.89064672 C15.3489362,10.2135625 15.7864352,10.6510614 16.1093509,11.2031436 C16.4322666,11.7552258 16.5937247,12.3541824 16.5937247,13.0000143 C16.5937247,13.6458463 16.4322666,14.2448028 16.1093509,14.796885 C15.7864352,15.3489672 15.3489362,15.7864662 14.796854,16.1093819 C14.2447719,16.4322976 13.6458153,16.5937557 12.9999833,16.5937557 C12.3541514,16.5937557 11.7551948,16.4322976 11.2031126,16.1093819 C10.6510304,15.7864662 10.2135315,15.3489672 9.89061572,14.796885 C9.56769999,14.2448028 9.40624188,13.6458463 9.40624188,13.0000143 C9.40624188,12.3541824 9.56769999,11.7552258 9.89061572,11.2031436 C10.2135315,10.6510614 10.6510304,10.2135625 11.2031126,9.89064672 C11.7551948,9.56773098 12.3541514,9.40627287 12.9999833,9.40627287 Z M12.9999833,15.3437587 C13.6458153,15.3437587 14.197897,15.1145928 14.6562294,14.6562604 C15.1145618,14.197928 15.3437277,13.6458463 15.3437277,13.0000143 C15.3437277,12.3541824 15.1145618,11.8021007 14.6562294,11.3437683 C14.197897,10.8854359 13.6458153,10.6562699 12.9999833,10.6562699 C12.3541514,10.6562699 11.8020697,10.8854359 11.3437373,11.3437683 C10.8854049,11.8021007 10.6562389,12.3541824 10.6562389,13.0000143 C10.6562389,13.6458463 10.8854049,14.197928 11.3437373,14.6562604 C11.8020697,15.1145928 12.3541514,15.3437587 12.9999833,15.3437587 Z M17.5937224,9.25002325 C17.5728889,9.47918921 17.4843476,9.67710572 17.328098,9.84377183 C17.1718484,10.0104379 16.9791403,10.0937712 16.7499744,10.0937712 C16.5208084,10.0937712 16.3228919,10.0104379 16.1562258,9.84377183 C15.9895597,9.67710572 15.9062264,9.47918921 15.9062264,9.25002325 C15.9062264,9.02085728 15.9895597,8.82294077 16.1562258,8.65627466 C16.3228919,8.48960855 16.5208084,8.40627526 16.7499744,8.40627526 C16.9791403,8.40627526 17.1770568,8.48960855 17.343723,8.65627466 C17.5103891,8.82294077 17.5937224,9.02085728 17.5937224,9.25002325 Z M19.96875,10.0937712 C19.9895835,10.6771033 20,11.645851 20,13.0000143 C20,14.3541776 19.984375,15.3281338 19.953125,15.9218823 C19.921875,16.5156309 19.8333335,17.0312547 19.6875,17.4687537 C19.5,17.9895859 19.2135415,18.4427098 18.828125,18.8281254 C18.4427085,19.213541 17.9895835,19.4999988 17.46875,19.6874984 C17.03125,19.8333315 16.515625,19.9218728 15.921875,19.9531227 C15.328125,19.9843727 14.3541665,19.9999976 13,19.9999976 C11.6458335,19.9999976 10.671875,19.9843727 10.078125,19.9531227 C9.484375,19.9218728 8.96875,19.8229145 8.53125,19.6562484 C8.01041651,19.4895823 7.55729151,19.213541 7.171875,18.8281254 C6.78645849,18.4427098 6.5,17.9895859 6.3125,17.4687537 C6.16666651,17.0312547 6.078125,16.5156309 6.046875,15.9218823 C6.015625,15.3281338 6,14.3541776 6,13.0000143 C6,11.645851 6.015625,10.6718949 6.046875,10.0781463 C6.078125,9.48439769 6.16666651,8.96877392 6.3125,8.53127496 C6.5,8.01044271 6.78645849,7.55731879 7.171875,7.1719032 C7.55729151,6.78648761 8.01041651,6.5000298 8.53125,6.31253025 C8.96875,6.1666971 9.484375,6.07815581 10.078125,6.04690588 C10.671875,6.01565596 11.6458335,6.00003099 13,6.00003099 C14.3541665,6.00003099 15.328125,6.01565596 15.921875,6.04690588 C16.515625,6.07815581 17.03125,6.1666971 17.46875,6.31253025 C17.9895835,6.5000298 18.4427085,6.78648761 18.828125,7.1719032 C19.2135415,7.55731879 19.5,8.01044271 19.6875,8.53127496 C19.8333335,8.96877392 19.9270835,9.48960617 19.96875,10.0937712 Z M18.4687203,17.1250045 C18.59372,16.7708388 18.6770533,16.2083401 18.7187197,15.4375085 C18.7395531,14.9791761 18.7499696,14.3333446 18.7499696,13.5000131 L18.7499696,12.5000155 C18.7499696,11.645851 18.7395531,11.0000191 18.7187197,10.5625201 C18.6770533,9.7708555 18.59372,9.20835684 18.4687203,8.87502414 C18.2187209,8.22919219 17.7708054,7.78127675 17.1249735,7.53127734 C16.7916408,7.40627764 16.2291421,7.32294435 15.4374775,7.28127794 C14.9791451,7.2604445 14.3333136,7.25002801 13.4999821,7.25002801 L12.4999845,7.25002801 C11.666653,7.25002801 11.0208215,7.2604445 10.5624891,7.28127794 C9.79165747,7.32294435 9.22915881,7.40627764 8.87499315,7.53127734 C8.22916119,7.78127675 7.78124575,8.22919219 7.53124635,8.87502414 C7.40624665,9.20835684 7.32291335,9.7708555 7.28124695,10.5625201 C7.2604135,11.0208525 7.24999702,11.666684 7.24999702,12.5000155 L7.24999702,13.5000131 C7.24999702,14.3333446 7.2604135,14.9791761 7.28124695,15.4375085 C7.32291335,16.2083401 7.40624665,16.7708388 7.53124635,17.1250045 C7.8020792,17.7708364 8.24999464,18.2187519 8.87499315,18.4687513 C9.22915881,18.593751 9.79165747,18.6770843 10.5624891,18.7187507 C11.0208215,18.7395841 11.666653,18.7500006 12.4999845,18.7500006 L13.4999821,18.7500006 C14.3541466,18.7500006 14.9999785,18.7395841 15.4374775,18.7187507 C16.2291421,18.6770843 16.7916408,18.593751 17.1249735,18.4687513 C17.7708054,18.1979184 18.2187209,17.750003 18.4687203,17.1250045 Z" id="" fill="#000000"></path>
                    <circle id="Oval-Copy" stroke="#000000" cx="13" cy="13" r="13"></circle>
                </g>
            </g>
        </g>
    </g>
</svg>