<?xml version="1.0" encoding="iso-8859-1"?>
<!-- Generator: Adobe Illustrator 19.0.0, SVG Export Plug-In . SVG Version: 6.00 Build 0)  -->
<svg version="1.1" id="Layer_1" xmlns="http://www.w3.org/2000/svg" xmlns:xlink="http://www.w3.org/1999/xlink" x="0px" y="0px"
	 viewBox="83 51 1440 800" style="enable-background:new 83 51 1440 800;" xml:space="preserve">
<g id="eusSzZ.tif" style="display:none;">
	
		<image style="display:inline;overflow:visible;enable-background:new    ;" width="980" height="1232" id="Layer_0_1_" xlink:href="879D59C283ACF452.png"  transform="matrix(-1.836970e-16 1 -1 -1.836970e-16 28 18)">
	</image>
</g>
<polygon style="fill:#FFCC00;" points="-188.2,-813.9 -110.6,-662.5 -431.9,-486.3 -571.6,-718.3 "/>
<polygon style="fill:#E6B696;" points="-726.7,-620.7 -716.4,-177.3 -874.1,-171.5 -878.7,-620.7 "/>
<polygon style="fill:#BD4C86;" points="-1283.8,-279.7 -1196,-180.6 -1102.6,-279.7 -1116.7,-299.6 -1193.2,-214.6 -1258.3,-299.6 
	"/>
<polygon style="fill:#484B9B;" points="-658.6,-372.1 -658.6,-358.1 -443.6,-365.1 -443.6,-379.1 "/>
<path style="fill:#819346;" d="M-651-778.9l-24-20c84-97.1,232.2-141.7,348-74l-20,26C-460.1-913.9-602.1-842.1-651-778.9z"/>
<circle style="fill:#FAB600;" cx="-1003.6" cy="-221.1" r="19"/>
<polygon style="fill:#444697;" points="-1449.7,-785.1 -1322.5,-899.1 -1496.4,-853.7 "/>
<polygon style="fill:#FAB600;" points="-1198.7,-639.8 -1045.7,-399.8 -1122.2,-332.8 -1274.7,-601.8 "/>
<polygon style="fill:#EC6313;" points="-443.6,-202.1 -297.6,-405.1 -149.6,-248.1 "/>
<rect x="-1113.323" y="-829.538" transform="matrix(-0.933 -0.3598 0.3598 -0.933 -1522.6364 -1917.4976)" style="fill:#30111C;" width="347.09" height="24.999"/>
<polygon style="fill:#30111C;" points="-792,839.5 -780.5,857.5 -795,872 -772.5,923.5 -778.5,926.5 -803.5,870.5 -788,856.5 
	-797,839.5 "/>
<polygon style="fill:#30111C;" points="-1447.2,-332.8 -1408.6,-297.2 -1434.1,-253.6 -1348.4,-145.1 -1360.8,-134.2 
	-1455.2,-251.9 -1427.1,-294.9 -1459.1,-329.7 "/>
<rect x="976.037" y="126.025" transform="matrix(-0.9847 0.1745 -0.1745 -0.9847 2420.0881 466.2919)" style="fill:#C42025;" width="427.018" height="427.018"/>
<polygon style="fill:#301932;" points="913,716 549,566 466,836 "/>
<circle style="fill:#444697;" cx="428.4" cy="234" r="96.8"/>
<image style="display:none;overflow:visible;enable-background:new    ;" width="1440" height="806" xlink:href="879D59C283ACF456.png"  transform="matrix(1 0 0 1 83 48)">
</image>
</svg>
